<svg width="396" height="54" viewBox="0 0 396 54" fill="none" xmlns="http://www.w3.org/2000/svg">
<path d="M-4.18358e-06 49.6785V2.68466H18.5405C22.0895 2.68466 25.1184 3.3195 27.6272 4.58919C30.1513 5.84358 32.0711 7.62574 33.3867 9.93566C34.7176 12.2303 35.383 14.9303 35.383 18.0357C35.383 21.1563 34.7099 23.8411 33.3638 26.0898C32.0176 28.3232 30.0672 30.0365 27.5125 31.2297C24.9731 32.4229 21.8983 33.0195 18.2881 33.0195H5.87422V25.0343H16.6819C18.5788 25.0343 20.1544 24.7742 21.4088 24.2541C22.6632 23.734 23.5963 22.9538 24.2082 21.9136C24.8354 20.8733 25.149 19.5807 25.149 18.0357C25.149 16.4753 24.8354 15.1597 24.2082 14.0889C23.5963 13.0181 22.6555 12.2073 21.3859 11.6566C20.1315 11.0906 18.5482 10.8076 16.636 10.8076H9.9357V49.6785H-4.18358e-06ZM25.3785 28.2926L37.0581 49.6785H26.0898L14.6626 28.2926H25.3785ZM57.7154 50.3669C54.0899 50.3669 50.9692 49.6326 48.3534 48.164C45.7528 46.6802 43.7488 44.5844 42.3415 41.8768C40.9341 39.1538 40.2304 35.9337 40.2304 32.2164C40.2304 28.5909 40.9341 25.409 42.3415 22.6708C43.7488 19.9325 45.7299 17.7986 48.2845 16.2688C50.8545 14.7391 53.8681 13.9742 57.3253 13.9742C59.6505 13.9742 61.8151 14.349 63.8191 15.0986C65.8384 15.8328 67.5976 16.9419 69.0967 18.4257C70.6112 19.9096 71.7891 21.7759 72.6304 24.0246C73.4718 26.258 73.8925 28.8739 73.8925 31.8722V34.5569H44.1313V28.4991H64.6911C64.6911 27.0918 64.3851 25.845 63.7732 24.7589C63.1613 23.6728 62.3123 22.8238 61.2262 22.2119C60.1554 21.5847 58.9086 21.2711 57.486 21.2711C56.0021 21.2711 54.6865 21.6153 53.5392 22.3037C52.4072 22.9767 51.5199 23.8869 50.8774 25.0343C50.235 26.1663 49.9061 27.4283 49.8908 28.8204V34.5799C49.8908 36.3238 50.212 37.8306 50.8545 39.1003C51.5123 40.37 52.4378 41.349 53.631 42.0374C54.8242 42.7258 56.2392 43.07 57.876 43.07C58.9622 43.07 59.9565 42.917 60.859 42.611C61.7616 42.3051 62.5341 41.8462 63.1766 41.2343C63.8191 40.6224 64.3086 39.8728 64.6452 38.9855L73.686 39.5821C73.227 41.7544 72.2862 43.6513 70.8636 45.2728C69.4562 46.879 67.6358 48.1334 65.4024 49.036C63.1843 49.9232 60.6219 50.3669 57.7154 50.3669Z" fill="#4167FF"/>
<path d="M98.1925 33.3408H106.637L110.882 38.802L115.058 43.6666L122.928 53.5334H113.658L108.243 46.879L105.466 42.9323L98.1925 33.3408ZM123.64 26.1816C123.64 31.3062 122.668 35.666 120.726 39.2609C118.798 42.8558 116.167 45.6017 112.832 47.4986C109.513 49.3802 105.78 50.321 101.634 50.321C97.4582 50.321 93.7103 49.3725 90.3908 47.4756C87.0712 45.5787 84.4477 42.8329 82.5202 39.2379C80.5928 35.643 79.629 31.2909 79.629 26.1816C79.629 21.0569 80.5928 16.6971 82.5202 13.1022C84.4477 9.50733 87.0712 6.76908 90.3908 4.88749C93.7103 2.99061 97.4582 2.04216 101.634 2.04216C105.78 2.04216 109.513 2.99061 112.832 4.88749C116.167 6.76908 118.798 9.50733 120.726 13.1022C122.668 16.6971 123.64 21.0569 123.64 26.1816ZM113.566 26.1816C113.566 22.862 113.069 20.0626 112.075 17.7833C111.096 15.5039 109.711 13.7753 107.922 12.5974C106.132 11.4195 104.036 10.8306 101.634 10.8306C99.2327 10.8306 97.137 11.4195 95.3472 12.5974C93.5574 13.7753 92.1653 15.5039 91.171 17.7833C90.1919 20.0626 89.7024 22.862 89.7024 26.1816C89.7024 29.5011 90.1919 32.3005 91.171 34.5799C92.1653 36.8592 93.5574 38.5878 95.3472 39.7657C97.137 40.9436 99.2327 41.5326 101.634 41.5326C104.036 41.5326 106.132 40.9436 107.922 39.7657C109.711 38.5878 111.096 36.8592 112.075 34.5799C113.069 32.3005 113.566 29.5011 113.566 26.1816ZM153.418 34.6717V14.4331H163.193V49.6785H153.808V43.2765H153.441C152.646 45.3416 151.323 47.0014 149.472 48.2558C147.636 49.5102 145.395 50.1374 142.748 50.1374C140.392 50.1374 138.32 49.602 136.53 48.5312C134.74 47.4603 133.34 45.9382 132.331 43.9649C131.336 41.9915 130.832 39.628 130.816 36.8745V14.4331H140.591V35.1306C140.607 37.211 141.165 38.8555 142.266 40.064C143.368 41.2725 144.844 41.8768 146.695 41.8768C147.873 41.8768 148.974 41.6091 149.999 41.0736C151.024 40.5229 151.85 39.7122 152.477 38.6413C153.12 37.5705 153.434 36.2473 153.418 34.6717ZM181.063 50.3439C178.814 50.3439 176.81 49.9538 175.051 49.1737C173.292 48.3782 171.9 47.2079 170.875 45.6629C169.865 44.1025 169.36 42.1598 169.36 39.8345C169.36 37.8765 169.72 36.232 170.439 34.9011C171.158 33.5702 172.137 32.4994 173.376 31.6886C174.615 30.8779 176.022 30.266 177.598 29.853C179.189 29.4399 180.856 29.1493 182.6 28.981C184.65 28.7668 186.302 28.568 187.556 28.3844C188.811 28.1855 189.721 27.8949 190.287 27.5124C190.853 27.13 191.136 26.564 191.136 25.8144V25.6767C191.136 24.2235 190.677 23.0991 189.759 22.3037C188.857 21.5082 187.572 21.1105 185.904 21.1105C184.145 21.1105 182.745 21.5005 181.705 22.2807C180.665 23.0456 179.977 24.0093 179.64 25.1719L170.599 24.4377C171.058 22.296 171.961 20.445 173.307 18.8847C174.653 17.309 176.389 16.1005 178.516 15.2592C180.657 14.4025 183.135 13.9742 185.95 13.9742C187.908 13.9742 189.782 14.2036 191.572 14.6626C193.377 15.1215 194.976 15.8328 196.368 16.7966C197.775 17.7603 198.884 18.9994 199.695 20.5139C200.506 22.013 200.911 23.8105 200.911 25.9062V49.6785H191.641V44.7909H191.366C190.8 45.8923 190.042 46.8637 189.094 47.7051C188.145 48.5312 187.006 49.1813 185.675 49.6555C184.344 50.1144 182.807 50.3439 181.063 50.3439ZM183.862 43.5977C185.3 43.5977 186.57 43.3147 187.671 42.7487C188.773 42.1674 189.637 41.3872 190.264 40.4082C190.891 39.4292 191.205 38.3201 191.205 37.081V33.3408C190.899 33.5396 190.478 33.7232 189.943 33.8915C189.423 34.0445 188.834 34.1898 188.176 34.3275C187.518 34.4498 186.86 34.5646 186.203 34.6717C185.545 34.7634 184.948 34.8476 184.413 34.9241C183.266 35.0923 182.264 35.36 181.407 35.7272C180.55 36.0943 179.885 36.5915 179.411 37.2187C178.936 37.8306 178.699 38.5955 178.699 39.5133C178.699 40.8442 179.181 41.8615 180.145 42.5651C181.124 43.2535 182.363 43.5977 183.862 43.5977ZM218.27 2.68466V49.6785H208.495V2.68466H218.27ZM226.1 49.6785V14.4331H235.875V49.6785H226.1ZM231.011 9.88976C229.558 9.88976 228.311 9.40789 227.271 8.44415C226.246 7.46511 225.733 6.29486 225.733 4.93338C225.733 3.58721 226.246 2.43225 227.271 1.46851C228.311 0.489471 229.558 -4.81948e-05 231.011 -4.81948e-05C232.464 -4.81948e-05 233.703 0.489471 234.728 1.46851C235.768 2.43225 236.288 3.58721 236.288 4.93338C236.288 6.29486 235.768 7.46511 234.728 8.44415C233.703 9.40789 232.464 9.88976 231.011 9.88976ZM262.659 14.4331V21.7759H240.906V14.4331H262.659ZM245.886 49.6785V11.8861C245.886 9.3314 246.383 7.21271 247.377 5.52998C248.387 3.84726 249.764 2.58522 251.508 1.74386C253.251 0.902501 255.232 0.481821 257.451 0.481821C258.95 0.481821 260.319 0.596553 261.558 0.826017C262.812 1.05548 263.745 1.26199 264.357 1.44556L262.613 8.78835C262.231 8.66597 261.757 8.55123 261.191 8.44415C260.64 8.33707 260.074 8.28353 259.493 8.28353C258.055 8.28353 257.053 8.62007 256.487 9.29316C255.921 9.95095 255.638 10.8765 255.638 12.0697V49.6785H245.886ZM268.631 49.6785V14.4331H278.406V49.6785H268.631ZM273.542 9.88976C272.088 9.88976 270.842 9.40789 269.801 8.44415C268.776 7.46511 268.264 6.29486 268.264 4.93338C268.264 3.58721 268.776 2.43225 269.801 1.46851C270.842 0.489471 272.088 -4.81948e-05 273.542 -4.81948e-05C274.995 -4.81948e-05 276.234 0.489471 277.259 1.46851C278.299 2.43225 278.819 3.58721 278.819 4.93338C278.819 6.29486 278.299 7.46511 277.259 8.44415C276.234 9.40789 274.995 9.88976 273.542 9.88976ZM302.161 50.3669C298.551 50.3669 295.446 49.602 292.845 48.0722C290.26 46.5272 288.271 44.3855 286.879 41.6473C285.502 38.9091 284.814 35.7578 284.814 32.1935C284.814 28.5833 285.51 25.4167 286.902 22.6937C288.309 19.9555 290.306 17.8215 292.891 16.2918C295.476 14.7467 298.551 13.9742 302.115 13.9742C305.19 13.9742 307.882 14.5325 310.192 15.6493C312.502 16.766 314.33 18.334 315.677 20.3532C317.023 22.3725 317.765 24.7436 317.902 27.4665H308.678C308.418 25.7073 307.729 24.2923 306.613 23.2215C305.511 22.1354 304.066 21.5923 302.276 21.5923C300.762 21.5923 299.438 22.0054 298.306 22.8314C297.19 23.6422 296.318 24.8277 295.69 26.3881C295.063 27.9484 294.75 29.8377 294.75 32.0558C294.75 34.3045 295.056 36.2167 295.667 37.7923C296.295 39.368 297.174 40.5688 298.306 41.3949C299.438 42.221 300.762 42.634 302.276 42.634C303.393 42.634 304.395 42.4045 305.282 41.9456C306.184 41.4867 306.926 40.8212 307.508 39.9493C308.104 39.062 308.494 37.9989 308.678 36.7598H317.902C317.749 39.4521 317.015 41.8232 315.699 43.8731C314.399 45.9076 312.602 47.4986 310.307 48.6459C308.013 49.7932 305.297 50.3669 302.161 50.3669ZM334.211 50.3439C331.963 50.3439 329.959 49.9538 328.199 49.1737C326.44 48.3782 325.048 47.2079 324.023 45.6629C323.014 44.1025 322.509 42.1598 322.509 39.8345C322.509 37.8765 322.868 36.232 323.587 34.9011C324.306 33.5702 325.285 32.4994 326.524 31.6886C327.763 30.8779 329.171 30.266 330.746 29.853C332.337 29.4399 334.005 29.1493 335.749 28.981C337.799 28.7668 339.451 28.568 340.705 28.3844C341.96 28.1855 342.87 27.8949 343.436 27.5124C344.002 27.13 344.285 26.564 344.285 25.8144V25.6767C344.285 24.2235 343.826 23.0991 342.908 22.3037C342.005 21.5082 340.72 21.1105 339.053 21.1105C337.294 21.1105 335.894 21.5005 334.854 22.2807C333.814 23.0456 333.125 24.0093 332.789 25.1719L323.748 24.4377C324.207 22.296 325.109 20.445 326.456 18.8847C327.802 17.309 329.538 16.1005 331.664 15.2592C333.806 14.4025 336.284 13.9742 339.099 13.9742C341.057 13.9742 342.931 14.2036 344.721 14.6626C346.526 15.1215 348.124 15.8328 349.516 16.7966C350.924 17.7603 352.033 18.9994 352.844 20.5139C353.654 22.013 354.06 23.8105 354.06 25.9062V49.6785H344.79V44.7909H344.514C343.948 45.8923 343.191 46.8637 342.243 47.7051C341.294 48.5312 340.154 49.1813 338.824 49.6555C337.493 50.1144 335.955 50.3439 334.211 50.3439ZM337.011 43.5977C338.449 43.5977 339.718 43.3147 340.82 42.7487C341.921 42.1674 342.786 41.3872 343.413 40.4082C344.04 39.4292 344.354 38.3201 344.354 37.081V33.3408C344.048 33.5396 343.627 33.7232 343.092 33.8915C342.571 34.0445 341.982 34.1898 341.325 34.3275C340.667 34.4498 340.009 34.5646 339.351 34.6717C338.693 34.7634 338.097 34.8476 337.561 34.9241C336.414 35.0923 335.412 35.36 334.556 35.7272C333.699 36.0943 333.033 36.5915 332.559 37.2187C332.085 37.8306 331.848 38.5955 331.848 39.5133C331.848 40.8442 332.33 41.8615 333.293 42.5651C334.273 43.2535 335.512 43.5977 337.011 43.5977ZM375.595 47.1314V14.6396H383.81V47.1314H375.595ZM363.456 34.9929V26.7782H395.948V34.9929H363.456Z" fill="#323235"/>
</svg>
